<svg version="1.1" id="Layer_1" xmlns="http://www.w3.org/2000/svg" xmlns:xlink="http://www.w3.org/1999/xlink" x="0px" y="0px"
	 width="100%" viewBox="0 0 1174 1144" enable-background="new 0 0 1174 1144" xml:space="preserve">
<path fill="#000000" opacity="1.000000" stroke="none" 
	d="
M306.000000,1.000001 
	C595.558655,1.000000 885.117371,1.000000 1175.000000,1.000000 
	C1175.000000,89.025566 1175.000000,177.051529 1174.693359,265.866730 
	C1172.926147,262.940460 1171.389404,259.252808 1170.018066,255.504639 
	C1163.639038,238.069763 1152.030884,224.442474 1137.077515,214.238525 
	C1119.729980,202.400772 1100.157837,196.898514 1078.780029,197.846954 
	C1066.780762,198.379288 1056.072632,201.841110 1046.287109,208.369156 
	C1038.828003,213.345337 1036.626831,224.190460 1040.989990,232.035568 
	C1044.666504,238.646027 1055.379883,241.985657 1062.992310,238.468369 
	C1073.996826,233.383820 1085.274292,231.673157 1097.233154,234.080154 
	C1124.347168,239.537460 1144.993652,267.133087 1140.977905,295.120789 
	C1138.980591,309.040833 1133.584961,320.976807 1122.384888,330.277985 
	C1110.799316,339.899323 1098.026123,342.838715 1083.574707,339.800537 
	C1065.697754,336.042236 1051.147827,326.303375 1037.841919,314.319702 
	C1031.722900,308.808655 1025.642578,303.246155 1019.338074,297.953064 
	C1016.237610,295.349915 1012.704163,294.943451 1008.993530,297.392365 
	C999.644836,303.562317 990.192566,309.575256 980.780396,315.649078 
	C977.918091,317.496216 975.210754,318.305298 971.925049,316.083282 
	C968.447266,313.731384 964.513672,312.065063 960.857971,309.962494 
	C947.114563,302.058105 933.399902,294.103577 919.680725,286.157166 
	C901.191589,275.447968 882.709045,264.727539 864.222168,254.014481 
	C850.225708,245.903610 836.287842,237.689270 822.211853,229.718842 
	C808.581726,222.000824 794.808472,214.535553 781.042358,206.496185 
	C780.655823,199.136444 780.914490,192.147736 779.855164,185.364868 
	C778.297058,175.388641 773.252808,166.841232 765.891479,160.017456 
	C750.511841,145.760925 731.396912,145.114517 712.002991,146.088562 
	C701.334534,146.624374 690.681091,147.459839 679.654175,148.077637 
	C678.504761,147.318558 677.808838,146.489227 676.926392,145.988724 
	C665.784363,139.669327 655.011047,132.508881 643.360901,127.320946 
	C625.756958,119.481750 607.818542,118.740448 590.897888,129.995361 
	C580.056824,137.206390 573.179871,147.282578 569.506958,159.932770 
	C561.889282,160.658417 554.724670,161.327744 547.560303,161.999756 
	C533.363220,163.331406 519.166870,164.670212 504.969147,165.995468 
	C490.605896,167.336182 476.240356,168.652237 461.877838,170.000977 
	C447.843781,171.318848 433.820526,172.759995 419.777496,173.972900 
	C403.090820,175.414169 386.383484,176.615524 369.694977,178.036850 
	C364.327972,178.493942 359.002716,179.693680 353.638641,179.842163 
	C350.125122,179.939453 345.465881,179.930939 343.300232,177.879288 
	C339.948029,174.703659 338.180084,169.797089 335.987701,165.498337 
	C335.459808,164.463257 335.373505,162.555984 335.987823,161.693344 
	C339.280060,157.070312 342.966644,152.730270 346.319397,148.147873 
	C364.062469,123.897331 375.102509,97.814461 369.066132,66.825890 
	C366.728210,54.823936 362.510376,43.585670 354.643768,34.390953 
	C341.840942,19.426720 327.106079,6.864000 306.878479,2.870898 
	C306.478149,2.791866 306.288116,1.647395 306.000000,1.000001 
z"/>
<path fill="#000000" opacity="1.000000" stroke="none" 
	d="
M885.000000,1145.000000 
	C590.441650,1145.000000 295.883331,1145.000000 1.000000,1145.000000 
	C1.000000,1056.641113 1.000000,968.281799 1.311227,879.137451 
	C2.076297,879.170410 2.728318,879.937134 2.955010,880.813965 
	C8.620691,902.726868 20.492479,920.453003 39.018215,933.472046 
	C51.420074,942.187439 65.174820,947.291565 80.400635,949.175110 
	C97.001747,951.228821 112.551079,949.083923 127.334465,941.291321 
	C137.716919,935.818604 140.068787,922.358154 131.929825,914.179626 
	C125.688545,907.908020 118.016907,907.490295 107.503082,911.889709 
	C97.063301,916.258179 86.365753,916.196716 75.797104,913.202698 
	C64.125214,909.896240 54.481052,903.202271 47.003349,893.493958 
	C38.621330,882.611450 34.161861,870.135010 35.252476,856.656555 
	C36.512383,841.085938 42.244125,827.121887 55.332569,817.095886 
	C62.605431,811.524719 70.407005,807.429993 79.636688,807.067078 
	C93.414719,806.525269 105.786041,811.193909 117.527145,818.010498 
	C132.573700,826.746155 144.308334,839.471130 157.136337,850.855957 
	C160.346710,853.705261 162.588837,854.644226 166.479141,852.264221 
	C176.565704,846.093567 186.804459,840.151794 197.206863,834.534180 
	C199.284561,833.412231 202.976303,833.070679 204.876785,834.173523 
	C222.233810,844.245605 239.383133,854.677429 256.545685,865.082397 
	C275.726807,876.711121 294.834290,888.461426 314.018860,900.084412 
	C332.163147,911.077209 350.476959,921.794434 368.505371,932.972839 
	C381.268799,940.886719 395.970734,945.543884 407.102905,956.483276 
	C407.142303,964.874939 405.771759,973.202454 407.645081,980.721741 
	C413.128326,1002.730530 433.125671,1018.025146 456.477081,1018.102905 
	C471.186493,1018.151917 485.605316,1016.354736 500.389038,1013.924438 
	C503.171265,1014.893860 505.728149,1015.487244 507.943054,1016.703430 
	C516.531555,1021.419006 524.717468,1026.976196 533.597107,1031.028442 
	C548.522888,1037.839844 563.574280,1037.331909 578.595398,1030.183838 
	C592.146606,1023.735046 600.287781,1013.290771 604.556152,999.042236 
	C613.528015,998.330017 622.057861,997.807190 630.551147,996.930115 
	C638.486084,996.110657 646.389099,994.965637 654.293701,993.873413 
	C665.750122,992.290405 677.185425,990.553040 688.648315,989.020142 
	C697.224976,987.873230 705.844971,987.049561 714.419861,985.890564 
	C723.120239,984.714722 731.778076,983.226135 740.474487,982.017883 
	C749.201904,980.805359 757.961792,979.827698 766.693054,978.641418 
	C777.673645,977.149475 788.640137,975.554138 799.611694,973.996338 
	C808.164368,972.782043 816.715149,971.554138 825.267517,970.337891 
	C831.375244,969.469299 837.484253,968.609802 843.024658,967.826538 
	C847.047363,973.922180 850.672302,979.415100 853.902344,984.309753 
	C849.172241,991.251404 844.727112,997.594727 840.466980,1004.059937 
	C827.036682,1024.442261 819.663879,1046.551880 820.940796,1071.276978 
	C821.613098,1084.295776 825.647583,1096.407227 832.638123,1106.907227 
	C844.847107,1125.245850 862.418091,1136.941406 883.634644,1143.074829 
	C884.225891,1143.245728 884.550903,1144.337524 885.000000,1145.000000 
z"/>
<path fill="#000000" opacity="1.000000" stroke="none" 
	d="
M1.000003,840.000000 
	C1.000000,560.440918 1.000000,280.881836 1.000000,1.000000 
	C87.358894,1.000000 173.718185,1.000000 260.869446,1.297026 
	C260.863220,2.069394 260.121246,2.727245 259.258514,2.993328 
	C238.830200,9.293685 222.099152,20.791937 209.929077,38.482647 
	C196.836441,57.514366 190.325592,78.457024 194.193405,101.574730 
	C195.692032,110.531998 198.551651,119.473007 202.204300,127.801727 
	C206.231125,136.983643 213.645416,140.010376 222.333878,138.011917 
	C233.887863,135.354324 239.045258,124.379059 233.783722,113.468636 
	C228.147736,101.781761 226.450562,89.911385 229.794144,77.039642 
	C232.955780,64.868355 239.413361,55.339512 248.950699,47.523602 
	C257.025146,40.906544 266.127747,35.950169 276.461700,35.174633 
	C296.711884,33.654911 314.549866,39.362949 327.495514,56.058582 
	C332.526733,62.547234 335.924652,69.934418 335.966736,78.358849 
	C336.043427,93.716591 331.845459,107.998573 322.899567,120.388077 
	C314.311646,132.281799 304.721497,143.452148 295.563690,154.933945 
	C293.207001,157.888687 290.134125,161.084259 292.631256,164.928864 
	C298.541229,174.027847 304.772247,182.937668 311.268219,191.628906 
	C314.745392,196.281189 315.696625,200.382736 312.958923,205.265244 
	C306.956238,215.970810 300.933807,226.665314 294.931580,237.371124 
	C280.879883,262.434204 266.781555,287.471344 252.805984,312.576843 
	C242.751801,330.638000 232.865143,348.792450 222.442535,366.935516 
	C215.916412,367.293243 209.782150,367.150085 203.798904,368.031708 
	C180.934982,371.400787 158.156799,395.107513 161.756714,424.151367 
	C163.758469,440.301361 163.446838,456.738098 164.012543,473.368286 
	C163.086182,475.098236 162.326935,476.506500 161.563766,477.912598 
	C150.820206,497.707367 139.662140,517.291992 129.485641,537.374084 
	C123.275757,549.628540 123.196373,563.105652 127.547195,575.982971 
	C133.325729,593.085938 146.066666,603.423584 163.115707,608.431519 
	C166.500076,609.425659 170.329269,608.905457 173.973846,609.546631 
	C174.328903,621.594727 174.535034,633.185242 175.033890,644.763184 
	C175.537430,656.449768 176.331223,668.123901 176.997986,679.803467 
	C177.664536,691.479370 178.331253,703.155212 178.997894,714.831116 
	C179.664566,726.507935 180.461044,738.179199 180.961166,749.863159 
	C181.456696,761.439636 181.630020,773.029663 182.008102,784.611694 
	C182.060883,786.228333 182.628540,787.827026 182.693909,789.444702 
	C182.861267,793.586121 183.603821,797.911194 182.648529,801.802551 
	C182.180084,803.710754 178.457794,804.830933 176.192673,806.283752 
	C174.420578,807.420288 172.751419,808.908203 170.808777,809.542053 
	C168.072586,810.434937 165.601852,812.042908 162.335938,809.066772 
	C153.454453,800.973267 144.422821,793.042664 133.754715,787.108032 
	C114.249840,776.257324 93.932098,770.070618 71.295700,772.920349 
	C47.839123,775.873352 30.539736,788.594727 17.043173,806.915833 
	C10.140413,816.286072 4.966393,826.837830 2.899048,838.588257 
	C2.799733,839.152710 1.656890,839.533630 1.000003,840.000000 
z"/>
<path fill="#000000" opacity="1.000000" stroke="none" 
	d="
M1175.000000,312.000000 
	C1175.000000,589.557800 1175.000000,867.115662 1175.000000,1145.000000 
	C1093.641113,1145.000000 1012.281799,1145.000000 930.126709,1144.694214 
	C929.806641,1143.947754 930.217468,1143.237793 930.767517,1143.105103 
	C957.348267,1136.691772 975.689758,1120.045898 988.093872,1096.390625 
	C995.709229,1081.867554 998.887756,1066.494629 997.241760,1049.813354 
	C995.998535,1037.212646 993.766907,1025.355347 987.149231,1014.385925 
	C982.261475,1006.283936 971.681946,1002.251221 963.968079,1006.595825 
	C954.965393,1011.666443 951.078003,1020.287964 956.583374,1031.061279 
	C965.658630,1048.820801 965.343567,1066.809570 955.493408,1083.586792 
	C942.958923,1104.936035 919.112549,1116.284546 893.630371,1109.888794 
	C876.453064,1105.577393 864.105225,1095.170044 857.613525,1078.246704 
	C852.217102,1064.178711 856.242188,1051.029907 861.470825,1038.180664 
	C868.796997,1020.177063 882.112732,1006.088562 893.660217,990.872681 
	C896.994385,986.479187 897.068176,983.704834 893.973938,979.453796 
	C887.132751,970.055176 880.330200,960.623840 873.774658,951.026367 
	C872.710388,949.468201 872.129150,946.628906 872.808411,945.000793 
	C875.332642,938.950989 878.416016,933.128906 881.397766,927.276550 
	C896.674622,897.292725 912.039856,867.353760 927.263245,837.342896 
	C936.039368,820.041870 944.669922,802.665894 953.198181,785.241577 
	C954.528809,782.522949 956.135254,781.483276 959.177002,782.474060 
	C961.954102,783.232239 964.511047,783.829102 967.096191,783.999939 
	C986.686584,785.294861 1002.195801,777.463562 1013.865967,762.110413 
	C1017.305420,757.585449 1021.073608,752.171204 1021.642029,746.839478 
	C1022.835266,735.646790 1022.507507,724.211121 1021.890442,712.925110 
	C1020.942139,695.580139 1019.224731,678.277222 1017.899902,660.537415 
	C1018.599548,656.975891 1018.595215,653.516052 1019.973938,650.744263 
	C1026.926514,636.767578 1034.564575,623.124939 1041.270508,609.035889 
	C1044.064087,603.166382 1046.110229,596.584106 1046.802124,590.143982 
	C1048.344727,575.785278 1045.027832,562.263000 1035.890381,550.797485 
	C1028.833008,541.942139 1020.256165,535.157776 1008.066345,534.464966 
	C1007.017517,519.730103 1006.047241,505.453583 1005.000000,491.182709 
	C1003.700928,473.481232 1002.275635,455.788818 1001.026001,438.083954 
	C1000.237671,426.915405 999.688232,415.730072 998.996216,404.554504 
	C998.701477,399.794830 998.324707,395.040161 997.971069,390.284271 
	C996.985962,377.032990 995.877686,363.789368 995.065979,350.527527 
	C994.776794,345.802673 1007.785828,336.648865 1012.261414,338.148895 
	C1012.847656,338.345398 1013.316711,338.909210 1013.823059,339.323669 
	C1017.490295,342.325867 1021.105957,345.393219 1024.825073,348.329559 
	C1047.946533,366.583710 1073.215454,378.116760 1103.717651,375.128784 
	C1120.673828,373.467743 1134.842773,366.562531 1147.175049,355.312164 
	C1159.245728,344.300415 1167.875000,331.071686 1172.428223,315.266449 
	C1172.783569,314.033051 1174.119751,313.082184 1175.000000,312.000000 
z"/>
<path fill="#B29AC6" opacity="1.000000" stroke="none" 
	d="
M164.177826,473.045624 
	C163.446838,456.738098 163.758469,440.301361 161.756714,424.151367 
	C158.156799,395.107513 180.934982,371.400787 203.798904,368.031708 
	C209.782150,367.150085 215.916412,367.293243 222.447296,367.324493 
	C219.105591,381.109924 212.969025,393.324615 203.626373,403.757568 
	C199.114105,408.796448 196.048599,414.482300 196.082855,421.208649 
	C196.149719,434.341064 196.462219,447.485352 197.194992,460.595551 
	C197.541458,466.794373 199.091843,472.925873 200.059723,479.537628 
	C200.348022,484.055756 200.717178,488.121185 200.990143,492.193085 
	C201.680588,502.491882 202.390167,512.790039 202.976776,523.095032 
	C203.732544,536.371765 204.375992,549.654968 204.996124,563.323853 
	C200.846970,572.967224 204.057709,582.368469 204.540955,591.680115 
	C204.739929,595.513916 206.206787,599.281921 207.055206,603.523926 
	C207.341904,607.393127 207.760925,610.812500 207.982071,614.244690 
	C208.692276,625.266846 209.368118,636.291626 209.985931,647.319397 
	C211.019363,665.765381 211.983856,684.215149 213.004364,702.661804 
	C213.642090,714.189819 214.393845,725.711731 214.978134,737.242310 
	C215.714066,751.765076 216.315552,766.294617 217.007233,780.819702 
	C217.297623,786.917786 217.415161,793.043030 218.149628,799.090515 
	C218.394455,801.106445 219.901413,803.482788 221.560745,804.700562 
	C224.533340,806.882324 228.116791,808.210327 231.343399,810.071106 
	C248.296204,819.847595 265.320679,829.505798 282.123627,839.534607 
	C304.192352,852.706421 326.056396,866.220703 348.050232,879.518677 
	C361.374084,887.574524 374.778900,895.496521 388.143707,903.484680 
	C400.074829,910.616150 412.000916,917.756042 423.957703,925.271240 
	C424.814606,926.757202 425.410950,928.256775 426.509766,928.906189 
	C432.773560,932.608032 439.116760,936.181885 445.517700,939.642517 
	C448.528442,941.270264 451.728516,942.547974 455.004395,944.308350 
	C471.879364,954.685547 488.568085,964.780273 505.338593,974.737305 
	C507.351440,975.932373 509.808319,976.379517 512.041504,977.545227 
	C513.136169,979.572632 513.882263,981.797302 515.422302,982.788635 
	C523.651245,988.085510 531.958191,993.288818 540.491577,998.072510 
	C544.344482,1000.232422 548.665588,1001.966553 552.984924,1002.794006 
	C560.441833,1004.222595 566.374390,1000.838074 570.434814,994.709045 
	C574.947449,987.897278 575.224670,980.375427 572.590210,972.771729 
	C572.302856,971.942383 570.824402,971.525635 569.816040,970.576416 
	C558.928101,952.161438 548.071594,934.117737 537.342102,915.998840 
	C533.069580,908.783875 529.078064,901.402466 524.980225,893.727539 
	C525.898376,891.838135 526.469482,889.925964 527.747253,888.864807 
	C533.710571,883.912415 539.920105,879.257874 545.934570,874.365234 
	C548.653870,872.153076 550.821289,873.448730 553.417603,875.094971 
	C567.841187,898.590271 582.131104,921.840454 595.914368,945.387207 
	C599.450073,951.427307 601.386536,958.403564 604.048523,965.421570 
	C604.058960,976.954529 604.078613,988.015686 604.098267,999.076904 
	C600.287781,1013.290771 592.146606,1023.735046 578.595398,1030.183838 
	C563.574280,1037.331909 548.522888,1037.839844 533.597107,1031.028442 
	C524.717468,1026.976196 516.531555,1021.419006 507.943054,1016.703430 
	C505.728149,1015.487244 503.171265,1014.893860 500.610107,1013.711182 
	C503.030243,1011.318665 500.826416,1010.231384 499.415436,1009.316223 
	C495.509583,1006.783020 491.553345,1004.311646 487.496307,1002.030579 
	C476.377228,995.778809 466.484344,987.399902 453.930756,983.572754 
	C449.976196,982.367065 446.720001,978.938843 443.074615,976.638062 
	C432.429260,969.919250 421.771912,963.218506 411.044922,956.631714 
	C410.021637,956.003418 408.477448,956.223511 407.175110,956.049805 
	C395.970734,945.543884 381.268799,940.886719 368.505371,932.972839 
	C350.476959,921.794434 332.163147,911.077209 314.018860,900.084412 
	C294.834290,888.461426 275.726807,876.711121 256.545685,865.082397 
	C239.383133,854.677429 222.233810,844.245605 204.876785,834.173523 
	C202.976303,833.070679 199.284561,833.412231 197.206863,834.534180 
	C186.804459,840.151794 176.565704,846.093567 166.479141,852.264221 
	C162.588837,854.644226 160.346710,853.705261 157.136337,850.855957 
	C144.308334,839.471130 132.573700,826.746155 117.527145,818.010498 
	C105.786041,811.193909 93.414719,806.525269 79.636688,807.067078 
	C70.407005,807.429993 62.605431,811.524719 55.332569,817.095886 
	C42.244125,827.121887 36.512383,841.085938 35.252476,856.656555 
	C34.161861,870.135010 38.621330,882.611450 47.003349,893.493958 
	C54.481052,903.202271 64.125214,909.896240 75.797104,913.202698 
	C86.365753,916.196716 97.063301,916.258179 107.503082,911.889709 
	C118.016907,907.490295 125.688545,907.908020 131.929825,914.179626 
	C140.068787,922.358154 137.716919,935.818604 127.334465,941.291321 
	C112.551079,949.083923 97.001747,951.228821 80.400635,949.175110 
	C65.174820,947.291565 51.420074,942.187439 39.018215,933.472046 
	C20.492479,920.453003 8.620691,902.726868 2.955010,880.813965 
	C2.728318,879.937134 2.076297,879.170410 1.311227,878.676147 
	C1.000000,866.312439 1.000000,853.624878 1.000003,840.468628 
	C1.656890,839.533630 2.799733,839.152710 2.899048,838.588257 
	C4.966393,826.837830 10.140413,816.286072 17.043173,806.915833 
	C30.539736,788.594727 47.839123,775.873352 71.295700,772.920349 
	C93.932098,770.070618 114.249840,776.257324 133.754715,787.108032 
	C144.422821,793.042664 153.454453,800.973267 162.335938,809.066772 
	C165.601852,812.042908 168.072586,810.434937 170.808777,809.542053 
	C172.751419,808.908203 174.420578,807.420288 176.192673,806.283752 
	C178.457794,804.830933 182.180084,803.710754 182.648529,801.802551 
	C183.603821,797.911194 182.861267,793.586121 182.693909,789.444702 
	C182.628540,787.827026 182.060883,786.228333 182.008102,784.611694 
	C181.630020,773.029663 181.456696,761.439636 180.961166,749.863159 
	C180.461044,738.179199 179.664566,726.507935 178.997894,714.831116 
	C178.331253,703.155212 177.664536,691.479370 176.997986,679.803467 
	C176.331223,668.123901 175.537430,656.449768 175.033890,644.763184 
	C174.535034,633.185242 174.328903,621.594727 173.987976,609.073608 
	C173.988022,600.319153 174.306137,592.483093 173.863434,584.690186 
	C173.656204,581.042053 171.979965,577.477478 170.976135,573.414551 
	C170.645370,561.005920 170.307938,549.057800 169.984528,536.634338 
	C169.648483,524.531067 169.442749,512.896362 168.900696,501.277344 
	C168.498856,492.663818 167.588989,484.075012 167.066071,475.465454 
	C166.936249,473.328217 166.484909,472.258942 164.177826,473.045624 
z"/>
<path fill="#AEC7E6" opacity="1.000000" stroke="none" 
	d="
M200.096771,479.087891 
	C199.091843,472.925873 197.541458,466.794373 197.194992,460.595551 
	C196.462219,447.485352 196.149719,434.341064 196.082855,421.208649 
	C196.048599,414.482300 199.114105,408.796448 203.626373,403.757568 
	C212.969025,393.324615 219.105591,381.109924 222.908524,367.294250 
	C232.865143,348.792450 242.751801,330.638000 252.805984,312.576843 
	C266.781555,287.471344 280.879883,262.434204 294.931580,237.371124 
	C300.933807,226.665314 306.956238,215.970810 312.958923,205.265244 
	C315.696625,200.382736 314.745392,196.281189 311.268219,191.628906 
	C304.772247,182.937668 298.541229,174.027847 292.631256,164.928864 
	C290.134125,161.084259 293.207001,157.888687 295.563690,154.933945 
	C304.721497,143.452148 314.311646,132.281799 322.899567,120.388077 
	C331.845459,107.998573 336.043427,93.716591 335.966736,78.358849 
	C335.924652,69.934418 332.526733,62.547234 327.495514,56.058582 
	C314.549866,39.362949 296.711884,33.654911 276.461700,35.174633 
	C266.127747,35.950169 257.025146,40.906544 248.950699,47.523602 
	C239.413361,55.339512 232.955780,64.868355 229.794144,77.039642 
	C226.450562,89.911385 228.147736,101.781761 233.783722,113.468636 
	C239.045258,124.379059 233.887863,135.354324 222.333878,138.011917 
	C213.645416,140.010376 206.231125,136.983643 202.204300,127.801727 
	C198.551651,119.473007 195.692032,110.531998 194.193405,101.574730 
	C190.325592,78.457024 196.836441,57.514366 209.929077,38.482647 
	C222.099152,20.791937 238.830200,9.293685 259.258514,2.993328 
	C260.121246,2.727245 260.863220,2.069394 261.330719,1.297026 
	C275.687561,1.000000 290.375122,1.000000 305.531342,1.000001 
	C306.288116,1.647395 306.478149,2.791866 306.878479,2.870898 
	C327.106079,6.864000 341.840942,19.426720 354.643768,34.390953 
	C362.510376,43.585670 366.728210,54.823936 369.066132,66.825890 
	C375.102509,97.814461 364.062469,123.897331 346.319397,148.147873 
	C342.966644,152.730270 339.280060,157.070312 335.987823,161.693344 
	C335.373505,162.555984 335.459808,164.463257 335.987701,165.498337 
	C338.180084,169.797089 339.948029,174.703659 343.300232,177.879288 
	C345.465881,179.930939 350.125122,179.939453 353.638641,179.842163 
	C359.002716,179.693680 364.327972,178.493942 369.694977,178.036850 
	C386.383484,176.615524 403.090820,175.414169 419.777496,173.972900 
	C433.820526,172.759995 447.843781,171.318848 461.877838,170.000977 
	C476.240356,168.652237 490.605896,167.336182 504.969147,165.995468 
	C519.166870,164.670212 533.363220,163.331406 547.560303,161.999756 
	C554.724670,161.327744 561.889282,160.658417 569.813477,160.217529 
	C578.325867,160.146606 586.110291,160.180969 593.822632,159.452484 
	C601.729065,158.705673 609.530151,156.802704 617.439026,156.132812 
	C632.975830,154.816818 648.560791,154.081024 664.114136,152.944443 
	C669.822693,152.527298 675.498047,151.655136 681.728760,150.927460 
	C680.864319,149.526855 680.442627,148.843521 680.020874,148.160187 
	C690.681091,147.459839 701.334534,146.624374 712.002991,146.088562 
	C731.396912,145.114517 750.511841,145.760925 765.891479,160.017456 
	C773.252808,166.841232 778.297058,175.388641 779.855164,185.364868 
	C780.914490,192.147736 780.655823,199.136444 780.682495,206.561325 
	C778.912720,209.721970 777.350037,212.305664 776.000183,214.996155 
	C772.315430,222.340546 768.720459,229.729980 764.942017,237.418076 
	C761.374084,240.854874 758.282837,244.467972 754.475769,247.008347 
	C739.701477,256.866791 724.664185,266.329865 709.793762,276.045807 
	C698.181824,283.632751 686.671936,291.375946 674.728821,299.035736 
	C671.887207,297.315735 668.782227,296.086273 667.113770,293.805756 
	C663.506592,288.875641 660.373352,283.541138 657.585022,278.096130 
	C656.360107,275.704132 656.451782,272.637939 656.086792,269.560303 
	C662.699158,265.114685 669.205322,261.039978 675.634949,256.847992 
	C691.114136,246.755875 706.612854,236.691742 721.973938,226.422211 
	C725.554688,224.028336 728.618591,220.861298 732.267334,218.095367 
	C734.960449,217.395508 737.867249,217.285141 739.555176,215.794571 
	C746.650940,209.528320 750.555847,197.233429 747.113342,190.532990 
	C742.689880,181.923141 735.037109,178.285049 725.330750,178.946564 
	C713.773010,179.734268 702.199219,180.301056 690.650146,181.193085 
	C685.669739,181.577744 680.733765,182.538559 675.520752,183.273880 
	C676.237488,184.687317 676.611145,185.424255 676.559814,186.088257 
	C673.734192,185.676971 671.307861,184.927872 668.937622,185.075974 
	C661.291809,185.553757 653.661743,186.311493 646.034546,187.053848 
	C632.724915,188.349289 619.421936,189.713623 605.644714,191.036194 
	C597.272400,191.365463 589.359924,191.547745 581.476074,192.122452 
	C577.940979,192.380157 574.463196,193.423767 570.531372,194.061310 
	C559.108276,195.339676 548.131104,196.848770 537.112671,197.940140 
	C527.634888,198.878891 518.098816,199.213699 508.608459,200.044006 
	C494.761169,201.255539 480.933350,202.688980 467.093750,203.990555 
	C462.681244,204.405533 458.249268,204.620483 453.840607,205.068314 
	C441.323090,206.339859 428.820007,207.756210 416.297546,208.974838 
	C407.975311,209.784744 399.621613,210.268539 391.296112,211.048965 
	C377.944977,212.300491 364.623352,213.946213 351.249878,214.829559 
	C347.440582,215.081192 345.602783,216.500214 344.097076,219.513168 
	C340.056824,227.597885 336.157715,235.765167 331.790527,243.672104 
	C320.648682,263.844635 309.242645,283.871002 298.023071,304.000885 
	C292.535400,313.846710 287.304291,323.835510 281.821106,333.683960 
	C272.655487,350.146484 263.380829,366.548370 253.802338,383.041595 
	C252.331299,384.032684 250.889191,384.752533 250.142746,385.917969 
	C246.386871,391.782043 242.479919,397.591461 239.305557,403.769257 
	C237.542908,407.199646 237.109497,411.312988 235.932037,415.443420 
	C227.550339,430.699493 219.369370,445.661835 211.050323,460.546967 
	C207.549332,466.811218 203.756775,472.912506 200.096771,479.087891 
z"/>
<path fill="#B29AC6" opacity="1.000000" stroke="none" 
	d="
M765.089966,237.101578 
	C768.720459,229.729980 772.315430,222.340546 776.000183,214.996155 
	C777.350037,212.305664 778.912720,209.721970 780.738220,207.024414 
	C794.808472,214.535553 808.581726,222.000824 822.211853,229.718842 
	C836.287842,237.689270 850.225708,245.903610 864.222168,254.014481 
	C882.709045,264.727539 901.191589,275.447968 919.680725,286.157166 
	C933.399902,294.103577 947.114563,302.058105 960.857971,309.962494 
	C964.513672,312.065063 968.447266,313.731384 971.925049,316.083282 
	C975.210754,318.305298 977.918091,317.496216 980.780396,315.649078 
	C990.192566,309.575256 999.644836,303.562317 1008.993530,297.392365 
	C1012.704163,294.943451 1016.237610,295.349915 1019.338074,297.953064 
	C1025.642578,303.246155 1031.722900,308.808655 1037.841919,314.319702 
	C1051.147827,326.303375 1065.697754,336.042236 1083.574707,339.800537 
	C1098.026123,342.838715 1110.799316,339.899323 1122.384888,330.277985 
	C1133.584961,320.976807 1138.980591,309.040833 1140.977905,295.120789 
	C1144.993652,267.133087 1124.347168,239.537460 1097.233154,234.080154 
	C1085.274292,231.673157 1073.996826,233.383820 1062.992310,238.468369 
	C1055.379883,241.985657 1044.666504,238.646027 1040.989990,232.035568 
	C1036.626831,224.190460 1038.828003,213.345337 1046.287109,208.369156 
	C1056.072632,201.841110 1066.780762,198.379288 1078.780029,197.846954 
	C1100.157837,196.898514 1119.729980,202.400772 1137.077515,214.238525 
	C1152.030884,224.442474 1163.639038,238.069763 1170.018066,255.504639 
	C1171.389404,259.252808 1172.926147,262.940460 1174.693359,266.328003 
	C1175.000000,281.020905 1175.000000,296.041779 1175.000000,311.531342 
	C1174.119751,313.082184 1172.783569,314.033051 1172.428223,315.266449 
	C1167.875000,331.071686 1159.245728,344.300415 1147.175049,355.312164 
	C1134.842773,366.562531 1120.673828,373.467743 1103.717651,375.128784 
	C1073.215454,378.116760 1047.946533,366.583710 1024.825073,348.329559 
	C1021.105957,345.393219 1017.490295,342.325867 1013.823059,339.323669 
	C1013.316711,338.909210 1012.847656,338.345398 1012.261414,338.148895 
	C1007.785828,336.648865 994.776794,345.802673 995.065979,350.527527 
	C995.877686,363.789368 996.985962,377.032990 997.971069,390.284271 
	C998.324707,395.040161 998.701477,399.794830 998.996216,404.554504 
	C999.688232,415.730072 1000.237671,426.915405 1001.026001,438.083954 
	C1002.275635,455.788818 1003.700928,473.481232 1005.000000,491.182709 
	C1006.047241,505.453583 1007.017517,519.730103 1007.591797,534.481689 
	C996.070068,535.284790 984.978577,535.610291 973.932312,535.487793 
	C972.988159,524.099365 971.891724,513.167358 971.033630,502.216766 
	C969.608765,484.033539 968.354370,465.837067 966.994873,447.648682 
	C966.027344,434.704224 964.980164,421.765717 964.012878,408.821259 
	C962.653687,390.631805 961.509460,372.423126 959.819885,354.264832 
	C959.555115,351.418732 957.569336,347.681305 955.224915,346.259003 
	C944.053955,339.481964 932.463074,333.400146 921.061951,326.999023 
	C906.670898,318.919189 892.264160,310.864655 877.965576,302.623322 
	C863.928467,294.532593 850.068115,286.135132 836.037048,278.033630 
	C824.137024,271.162567 812.050598,264.614502 800.145142,257.752563 
	C788.395752,250.980560 776.769958,243.994003 765.089966,237.101578 
z"/>
<path fill="#AEC7E6" opacity="1.000000" stroke="none" 
	d="
M604.556152,999.042236 
	C604.078613,988.015686 604.058960,976.954529 604.481934,965.451294 
	C616.603394,963.974243 628.282288,962.939148 640.283447,962.172241 
	C642.403870,962.626099 644.207520,963.012817 645.999329,962.964050 
	C655.612488,962.702515 665.222717,962.334106 674.833862,961.999573 
	C684.610901,961.659241 694.390381,961.372742 704.163818,960.948853 
	C709.124329,960.733704 714.077332,960.309265 719.027893,959.907715 
	C734.860107,958.623657 750.686218,957.262451 766.521118,956.013550 
	C783.195801,954.698425 799.360352,951.392029 814.376587,943.728455 
	C816.483215,942.653320 818.151733,940.719543 820.396362,939.110596 
	C829.237915,934.026672 837.706116,929.015320 846.345337,923.853760 
	C846.736511,923.482727 846.884155,923.220947 846.973511,922.951782 
	C846.987915,922.985352 846.921814,922.954407 847.298218,922.955688 
	C851.223755,920.648254 855.873901,919.109131 858.123047,915.891602 
	C866.011780,904.606323 873.857056,893.158447 880.294556,881.017029 
	C896.006470,851.383789 907.586670,819.972778 918.046204,788.160034 
	C920.006897,782.196716 921.327942,776.023132 922.956970,769.560547 
	C923.700256,766.784546 924.430725,764.394409 925.490112,762.069031 
	C935.694458,770.743591 946.469788,777.860352 958.969971,782.115479 
	C956.135254,781.483276 954.528809,782.522949 953.198181,785.241577 
	C944.669922,802.665894 936.039368,820.041870 927.263245,837.342896 
	C912.039856,867.353760 896.674622,897.292725 881.397766,927.276550 
	C878.416016,933.128906 875.332642,938.950989 872.808411,945.000793 
	C872.129150,946.628906 872.710388,949.468201 873.774658,951.026367 
	C880.330200,960.623840 887.132751,970.055176 893.973938,979.453796 
	C897.068176,983.704834 896.994385,986.479187 893.660217,990.872681 
	C882.112732,1006.088562 868.796997,1020.177063 861.470825,1038.180664 
	C856.242188,1051.029907 852.217102,1064.178711 857.613525,1078.246704 
	C864.105225,1095.170044 876.453064,1105.577393 893.630371,1109.888794 
	C919.112549,1116.284546 942.958923,1104.936035 955.493408,1083.586792 
	C965.343567,1066.809570 965.658630,1048.820801 956.583374,1031.061279 
	C951.078003,1020.287964 954.965393,1011.666443 963.968079,1006.595825 
	C971.681946,1002.251221 982.261475,1006.283936 987.149231,1014.385925 
	C993.766907,1025.355347 995.998535,1037.212646 997.241760,1049.813354 
	C998.887756,1066.494629 995.709229,1081.867554 988.093872,1096.390625 
	C975.689758,1120.045898 957.348267,1136.691772 930.767517,1143.105103 
	C930.217468,1143.237793 929.806641,1143.947754 929.665405,1144.694214 
	C915.312439,1145.000000 900.624878,1145.000000 885.468628,1145.000000 
	C884.550903,1144.337524 884.225891,1143.245728 883.634644,1143.074829 
	C862.418091,1136.941406 844.847107,1125.245850 832.638123,1106.907227 
	C825.647583,1096.407227 821.613098,1084.295776 820.940796,1071.276978 
	C819.663879,1046.551880 827.036682,1024.442261 840.466980,1004.059937 
	C844.727112,997.594727 849.172241,991.251404 853.902344,984.309753 
	C850.672302,979.415100 847.047363,973.922180 843.024658,967.826538 
	C837.484253,968.609802 831.375244,969.469299 825.267517,970.337891 
	C816.715149,971.554138 808.164368,972.782043 799.611694,973.996338 
	C788.640137,975.554138 777.673645,977.149475 766.693054,978.641418 
	C757.961792,979.827698 749.201904,980.805359 740.474487,982.017883 
	C731.778076,983.226135 723.120239,984.714722 714.419861,985.890564 
	C705.844971,987.049561 697.224976,987.873230 688.648315,989.020142 
	C677.185425,990.553040 665.750122,992.290405 654.293701,993.873413 
	C646.389099,994.965637 638.486084,996.110657 630.551147,996.930115 
	C622.057861,997.807190 613.528015,998.330017 604.556152,999.042236 
z"/>
<path fill="#B29BC7" opacity="1.000000" stroke="none" 
	d="
M679.654175,148.077637 
	C680.442627,148.843521 680.864319,149.526855 681.728760,150.927460 
	C675.498047,151.655136 669.822693,152.527298 664.114136,152.944443 
	C648.560791,154.081024 632.975830,154.816818 617.439026,156.132812 
	C609.530151,156.802704 601.729065,158.705673 593.822632,159.452484 
	C586.110291,160.180969 578.325867,160.146606 570.266602,160.162415 
	C573.179871,147.282578 580.056824,137.206390 590.897888,129.995361 
	C607.818542,118.740448 625.756958,119.481750 643.360901,127.320946 
	C655.011047,132.508881 665.784363,139.669327 676.926392,145.988724 
	C677.808838,146.489227 678.504761,147.318558 679.654175,148.077637 
z"/>
<path fill="#AEC6E5" opacity="1.000000" stroke="none" 
	d="
M407.102905,956.483276 
	C408.477448,956.223511 410.021637,956.003418 411.044922,956.631714 
	C421.771912,963.218506 432.429260,969.919250 443.074615,976.638062 
	C446.720001,978.938843 449.976196,982.367065 453.930756,983.572754 
	C466.484344,987.399902 476.377228,995.778809 487.496307,1002.030579 
	C491.553345,1004.311646 495.509583,1006.783020 499.415436,1009.316223 
	C500.826416,1010.231384 503.030243,1011.318665 500.227722,1013.621155 
	C485.605316,1016.354736 471.186493,1018.151917 456.477081,1018.102905 
	C433.125671,1018.025146 413.128326,1002.730530 407.645081,980.721741 
	C405.771759,973.202454 407.142303,964.874939 407.102905,956.483276 
z"/>
<path fill="#AEC6E6" opacity="1.000000" stroke="none" 
	d="
M170.969482,573.875000 
	C171.979965,577.477478 173.656204,581.042053 173.863434,584.690186 
	C174.306137,592.483093 173.988022,600.319153 173.967453,608.610596 
	C170.329269,608.905457 166.500076,609.425659 163.115707,608.431519 
	C146.066666,603.423584 133.325729,593.085938 127.547195,575.982971 
	C123.196373,563.105652 123.275757,549.628540 129.485641,537.374084 
	C139.662140,517.291992 150.820206,497.707367 161.563766,477.912598 
	C162.326935,476.506500 163.086182,475.098236 164.012527,473.368286 
	C166.484909,472.258942 166.936249,473.328217 167.066071,475.465454 
	C167.588989,484.075012 168.498856,492.663818 168.900696,501.277344 
	C169.442749,512.896362 169.648483,524.531067 169.640900,536.707336 
	C167.678909,539.847656 166.107300,542.460632 164.464554,545.028076 
	C156.891815,556.863342 158.465683,565.316223 169.742477,573.192261 
	C170.124176,573.458923 170.559265,573.649170 170.969482,573.875000 
z"/>
<path fill="#AFB5DA" opacity="1.000000" stroke="none" 
	d="
M973.887085,535.935852 
	C984.978577,535.610291 996.070068,535.284790 1007.636108,534.942505 
	C1020.256165,535.157776 1028.833008,541.942139 1035.890381,550.797485 
	C1045.027832,562.263000 1048.344727,575.785278 1046.802124,590.143982 
	C1046.110229,596.584106 1044.064087,603.166382 1041.270508,609.035889 
	C1034.564575,623.124939 1026.926514,636.767578 1019.973938,650.744263 
	C1018.595215,653.516052 1018.599548,656.975891 1017.686401,660.196533 
	C1016.937317,654.512024 1016.467957,648.749390 1015.998596,642.986816 
	C1015.072998,631.620483 1013.949585,620.265625 1013.289856,608.883850 
	C1012.833008,601.003113 1013.477478,593.043091 1012.759888,585.198059 
	C1012.229797,579.402100 1011.319275,573.221436 1008.761597,568.123657 
	C1004.374939,559.380615 979.781982,559.136475 976.584106,571.150757 
	C975.551086,571.623535 974.791260,571.927368 974.155029,572.398132 
	C959.950195,582.907776 945.855591,593.569214 931.538757,603.923645 
	C916.508240,614.794250 901.267212,625.373840 885.713135,636.071594 
	C883.602295,636.486633 881.635925,636.504883 880.235413,637.404358 
	C873.854065,641.502502 867.503235,645.676514 861.435913,650.216797 
	C859.755005,651.474670 859.086609,654.085693 857.615173,656.150391 
	C852.338684,659.830200 847.432068,663.479309 842.456665,667.032288 
	C828.808105,676.778809 815.149292,686.511230 801.459900,696.200195 
	C785.478577,707.511292 769.401062,718.687195 753.473450,730.073059 
	C733.071777,744.657349 712.819092,759.449890 692.426636,774.047241 
	C669.356567,790.561401 646.224854,806.989746 623.079102,823.397705 
	C600.478943,839.418823 577.813965,855.348511 555.240967,871.407532 
	C554.206848,872.143311 553.796509,873.755920 553.095642,874.960144 
	C550.821289,873.448730 548.653870,872.153076 545.934570,874.365234 
	C539.920105,879.257874 533.710571,883.912415 527.747253,888.864807 
	C526.469482,889.925964 525.898376,891.838135 524.621216,893.688477 
	C508.600494,905.068787 492.913605,916.053650 477.340027,927.196838 
	C469.732086,932.640442 462.335205,938.379089 454.842773,943.984253 
	C451.728516,942.547974 448.528442,941.270264 445.517700,939.642517 
	C439.116760,936.181885 432.773560,932.608032 426.509766,928.906189 
	C425.410950,928.256775 424.814606,926.757202 424.113037,924.962341 
	C424.708466,924.122986 425.255127,924.079468 425.634521,923.804810 
	C445.059174,909.744202 464.507629,895.715942 483.862976,881.560364 
	C491.648712,875.866150 499.227081,869.888367 507.245483,864.074707 
	C508.977448,863.977661 510.649353,864.300598 511.703491,863.639160 
	C518.286987,859.507629 524.905396,855.387634 531.121033,850.740417 
	C533.052551,849.296387 533.768250,846.226135 535.385620,843.834534 
	C537.395813,842.781494 539.142395,841.908386 540.713623,840.789185 
	C554.767944,830.777710 568.790405,820.721375 582.824219,810.681152 
	C599.482849,798.763062 616.092590,786.775757 632.817261,774.950928 
	C650.227600,762.641357 667.827942,750.599854 685.201965,738.239685 
	C704.458252,724.540344 723.515259,710.561218 742.727295,696.799194 
	C762.309265,682.772339 781.977783,668.866333 801.601440,654.897644 
	C814.405273,645.783325 827.196838,636.651733 840.126892,627.432983 
	C838.961609,624.994934 838.065552,622.544312 836.712280,620.379456 
	C825.432312,602.334473 814.096008,584.324524 802.723328,566.337830 
	C783.513794,535.956665 764.194275,505.644684 745.054871,475.219421 
	C729.214233,450.038208 713.615234,424.705078 697.812988,399.499603 
	C690.002136,387.040924 681.952515,374.732178 674.049988,362.330719 
	C664.665344,347.603302 655.322693,332.849152 646.026672,317.728699 
	C645.819702,314.875671 646.326233,311.910095 645.132568,310.015839 
	C641.280273,303.902283 636.951599,298.065186 632.470276,292.386902 
	C631.198547,290.775452 628.778809,290.070007 626.935791,288.576904 
	C626.973633,287.705383 627.150696,287.086060 626.921448,286.723877 
	C614.623596,267.290680 602.061523,248.019974 590.052124,228.410690 
	C583.223938,217.261520 577.293884,205.562271 570.959412,194.110748 
	C574.463196,193.423767 577.940979,192.380157 581.476074,192.122452 
	C589.359924,191.547745 597.272400,191.365463 605.707153,191.382172 
	C618.441772,211.274277 630.588867,230.841232 642.872620,250.322021 
	C647.053284,256.952240 651.578125,263.365448 655.945679,269.877808 
	C656.451782,272.637939 656.360107,275.704132 657.585022,278.096130 
	C660.373352,283.541138 663.506592,288.875641 667.113770,293.805756 
	C668.782227,296.086273 671.887207,297.315735 674.677490,299.414734 
	C675.862122,301.888062 676.415894,304.156616 677.606323,306.018036 
	C684.982605,317.551636 692.631531,328.911835 699.944580,340.484589 
	C712.285095,360.013031 724.389709,379.690369 736.692505,399.242737 
	C748.752014,418.408569 761.015320,437.446350 773.042847,456.632050 
	C786.759705,478.512665 800.289856,500.510345 813.949219,522.427124 
	C822.583313,536.280884 831.287781,550.090881 839.992859,563.900208 
	C849.040039,578.252319 858.125916,592.580078 867.247681,607.001953 
	C869.919067,605.502258 872.415771,604.356567 874.633545,602.810669 
	C883.550842,596.595215 892.408813,590.293640 901.238342,583.953674 
	C914.812073,574.207336 928.125732,564.079651 941.966553,554.730896 
	C952.187195,547.827332 961.231201,538.755615 973.887085,535.935852 
z"/>
<path fill="#B29AC6" opacity="1.000000" stroke="none" 
	d="
M976.914917,571.059448 
	C979.781982,559.136475 1004.374939,559.380615 1008.761597,568.123657 
	C1011.319275,573.221436 1012.229797,579.402100 1012.759888,585.198059 
	C1013.477478,593.043091 1012.833008,601.003113 1013.289856,608.883850 
	C1013.949585,620.265625 1015.072998,631.620483 1015.998596,642.986816 
	C1016.467957,648.749390 1016.937317,654.512024 1017.620239,660.615479 
	C1019.224731,678.277222 1020.942139,695.580139 1021.890442,712.925110 
	C1022.507507,724.211121 1022.835266,735.646790 1021.642029,746.839478 
	C1021.073608,752.171204 1017.305420,757.585449 1013.865967,762.110413 
	C1002.195801,777.463562 986.686584,785.294861 967.096191,783.999939 
	C964.511047,783.829102 961.954102,783.232239 959.177002,782.474060 
	C946.469788,777.860352 935.694458,770.743591 925.339539,761.753601 
	C921.876770,757.334106 918.619019,753.466980 915.958252,749.225342 
	C905.131592,731.966187 894.521790,714.571167 883.765808,697.267456 
	C875.211670,683.505920 866.561279,669.804138 857.953674,656.075867 
	C859.086609,654.085693 859.755005,651.474670 861.435913,650.216797 
	C867.503235,645.676514 873.854065,641.502502 880.235413,637.404358 
	C881.635925,636.504883 883.602295,636.486633 885.785034,636.399170 
	C887.182007,637.871338 888.227417,638.927612 889.002747,640.154602 
	C898.033203,654.446838 907.012573,668.771423 916.026672,683.074036 
	C924.271545,696.156067 932.509399,709.242981 940.854431,722.260986 
	C941.664856,723.525146 942.407349,726.409241 944.977417,724.302124 
	C944.848877,727.151428 943.980408,729.829895 944.692200,731.986938 
	C947.835022,741.511353 960.768799,750.090515 971.477600,749.970154 
	C979.291443,749.533569 985.611938,746.448486 987.162415,739.036743 
	C988.750244,731.446350 988.360535,723.440857 988.748169,715.612610 
	C988.755188,715.469788 987.660706,715.272339 987.081665,714.673340 
	C987.400085,710.965698 988.039185,707.678650 987.972107,704.406006 
	C987.789246,695.486389 987.550293,686.554565 986.878540,677.662048 
	C986.176147,668.363220 984.943970,659.104431 983.882263,649.261475 
	C982.524658,650.177551 981.860657,650.625610 981.111206,650.640076 
	C981.349609,646.285645 982.092834,642.344299 981.901428,638.448853 
	C981.596619,632.244080 980.477600,626.083252 980.042664,619.880066 
	C978.902100,603.613403 977.945068,587.333862 976.914917,571.059448 
z"/>
<path fill="#000000" opacity="1.000000" stroke="none" 
	d="
M506.899841,864.039612 
	C499.227081,869.888367 491.648712,875.866150 483.862976,881.560364 
	C464.507629,895.715942 445.059174,909.744202 425.634521,923.804810 
	C425.255127,924.079468 424.708466,924.122986 424.084534,924.583252 
	C412.000916,917.756042 400.074829,910.616150 388.143707,903.484680 
	C374.778900,895.496521 361.374084,887.574524 348.050232,879.518677 
	C326.056396,866.220703 304.192352,852.706421 282.123627,839.534607 
	C265.320679,829.505798 248.296204,819.847595 231.343399,810.071106 
	C228.116791,808.210327 224.533340,806.882324 221.560745,804.700562 
	C219.901413,803.482788 218.394455,801.106445 218.149628,799.090515 
	C217.415161,793.043030 217.297623,786.917786 217.007233,780.819702 
	C216.315552,766.294617 215.714066,751.765076 214.978134,737.242310 
	C214.393845,725.711731 213.642090,714.189819 213.004364,702.661804 
	C211.983856,684.215149 211.019363,665.765381 209.985931,647.319397 
	C209.368118,636.291626 208.692276,625.266846 207.982071,614.244690 
	C207.760925,610.812500 207.341904,607.393127 207.432922,603.485107 
	C212.227051,600.656921 216.794708,598.609192 220.945312,595.918274 
	C250.040802,577.054749 279.050232,558.058472 308.456909,539.064941 
	C310.242645,540.155823 312.072876,541.021057 312.998840,542.465820 
	C316.064392,547.248840 318.742340,552.278015 321.679352,557.146179 
	C332.876190,575.704956 344.188232,594.194519 355.322632,612.790588 
	C370.668457,638.420288 385.804718,664.175720 401.197296,689.777222 
	C412.644073,708.815918 424.409607,727.662659 435.932800,746.655762 
	C446.688965,764.384705 457.350739,782.171265 467.983612,799.974548 
	C477.343018,815.645630 486.544037,831.411499 495.941681,847.059448 
	C499.408142,852.831360 503.236511,858.385925 506.899841,864.039612 
z"/>
<path fill="#000000" opacity="1.000000" stroke="none" 
	d="
M857.615173,656.150391 
	C866.561279,669.804138 875.211670,683.505920 883.765808,697.267456 
	C894.521790,714.571167 905.131592,731.966187 915.958252,749.225342 
	C918.619019,753.466980 921.876770,757.334106 925.010620,761.688904 
	C924.430725,764.394409 923.700256,766.784546 922.637634,769.727173 
	C903.534424,807.872314 884.705566,845.436218 866.023499,883.073059 
	C859.470581,896.274658 853.278564,909.655396 846.921753,922.954407 
	C846.921814,922.954407 846.987915,922.985352 846.715942,923.029846 
	C846.354126,923.384216 846.264221,923.694153 846.174316,924.004028 
	C837.706116,929.015320 829.237915,934.026672 819.979858,939.038635 
	C817.616943,939.359436 816.057434,939.799561 814.468384,939.979065 
	C807.971680,940.713196 801.455566,941.281189 794.966125,942.071472 
	C784.771545,943.312805 774.597778,944.724731 764.405823,945.988281 
	C755.495239,947.092834 746.564392,948.034302 737.655823,949.153931 
	C727.960693,950.372375 718.287659,951.766968 708.592163,952.981934 
	C701.945007,953.814880 695.266235,954.395569 688.618835,955.226624 
	C679.083191,956.418701 669.559387,957.707031 660.038086,959.010010 
	C653.339233,959.926758 646.653015,960.936157 639.961182,961.904053 
	C628.282288,962.939148 616.603394,963.974243 604.491089,964.979553 
	C601.386536,958.403564 599.450073,951.427307 595.914368,945.387207 
	C582.131104,921.840454 567.841187,898.590271 553.417603,875.094971 
	C553.796509,873.755920 554.206848,872.143311 555.240967,871.407532 
	C577.813965,855.348511 600.478943,839.418823 623.079102,823.397705 
	C646.224854,806.989746 669.356567,790.561401 692.426636,774.047241 
	C712.819092,759.449890 733.071777,744.657349 753.473450,730.073059 
	C769.401062,718.687195 785.478577,707.511292 801.459900,696.200195 
	C815.149292,686.511230 828.808105,676.778809 842.456665,667.032288 
	C847.432068,663.479309 852.338684,659.830200 857.615173,656.150391 
z"/>
<path fill="#000000" opacity="1.000000" stroke="none" 
	d="
M200.059723,479.537628 
	C203.756775,472.912506 207.549332,466.811218 211.050323,460.546967 
	C219.369370,445.661835 227.550339,430.699493 236.266373,415.537262 
	C238.543594,418.377625 240.308334,421.469025 242.144806,424.517242 
	C254.862091,445.625854 267.682861,466.672852 280.268707,487.859436 
	C284.133911,494.365997 287.369415,501.246674 290.580902,508.098083 
	C289.914978,508.587372 289.607697,509.005219 289.201172,509.271637 
	C270.488770,521.534424 251.834641,533.888123 233.018875,545.990417 
	C223.858551,551.882385 214.394440,557.301941 205.067825,562.935364 
	C204.375992,549.654968 203.732544,536.371765 202.976776,523.095032 
	C202.390167,512.790039 201.680588,502.491882 200.990143,492.193085 
	C200.717178,488.121185 200.348022,484.055756 200.059723,479.537628 
z"/>
<path fill="#000000" opacity="1.000000" stroke="none" 
	d="
M455.004364,944.308289 
	C462.335205,938.379089 469.732086,932.640442 477.340027,927.196838 
	C492.913605,916.053650 508.600494,905.068787 524.599609,894.057739 
	C529.078064,901.402466 533.069580,908.783875 537.342102,915.998840 
	C548.071594,934.117737 558.928101,952.161438 569.355713,970.613159 
	C564.650269,971.006409 560.267761,970.582642 556.005249,971.116699 
	C541.333984,972.954895 526.704712,975.127930 512.059387,977.173340 
	C509.808319,976.379517 507.351440,975.932373 505.338593,974.737305 
	C488.568085,964.780273 471.879364,954.685547 455.004364,944.308289 
z"/>
<path fill="#AEC6E6" opacity="1.000000" stroke="none" 
	d="
M204.996124,563.323853 
	C214.394440,557.301941 223.858551,551.882385 233.018875,545.990417 
	C251.834641,533.888123 270.488770,521.534424 289.201172,509.271637 
	C289.607697,509.005219 289.914978,508.587372 290.938354,508.159576 
	C293.864624,509.920593 296.714905,511.366119 298.259918,513.682312 
	C302.038849,519.347473 305.137207,525.461914 308.666046,531.300781 
	C310.392944,534.158203 310.012512,536.632324 308.087189,539.104736 
	C279.050232,558.058472 250.040802,577.054749 220.945312,595.918274 
	C216.794708,598.609192 212.227051,600.656921 207.474670,603.041138 
	C206.206787,599.281921 204.739929,595.513916 204.540955,591.680115 
	C204.057709,582.368469 200.846970,572.967224 204.996124,563.323853 
z"/>
<path fill="#AEC7E6" opacity="1.000000" stroke="none" 
	d="
M512.041504,977.545288 
	C526.704712,975.127930 541.333984,972.954895 556.005249,971.116699 
	C560.267761,970.582642 564.650269,971.006409 569.438110,970.954346 
	C570.824402,971.525635 572.302856,971.942383 572.590210,972.771729 
	C575.224670,980.375427 574.947449,987.897278 570.434814,994.709045 
	C566.374390,1000.838074 560.441833,1004.222595 552.984924,1002.794006 
	C548.665588,1001.966553 544.344482,1000.232422 540.491577,998.072510 
	C531.958191,993.288818 523.651245,988.085510 515.422302,982.788635 
	C513.882263,981.797302 513.136169,979.572632 512.041504,977.545288 
z"/>
<path fill="#000000" opacity="1.000000" stroke="none" 
	d="
M170.976135,573.414551 
	C170.559265,573.649170 170.124176,573.458923 169.742477,573.192261 
	C158.465683,565.316223 156.891815,556.863342 164.464554,545.028076 
	C166.107300,542.460632 167.678909,539.847656 169.626907,537.182617 
	C170.307938,549.057800 170.645370,561.005920 170.976135,573.414551 
z"/>
<path fill="#000000" opacity="1.000000" stroke="none" 
	d="
M570.531372,194.061310 
	C577.293884,205.562271 583.223938,217.261520 590.052124,228.410690 
	C602.061523,248.019974 614.623596,267.290680 626.921448,286.723877 
	C627.150696,287.086060 626.973633,287.705383 626.574341,288.605042 
	C620.179626,292.743744 614.128235,296.377258 608.225647,300.238403 
	C580.063843,318.660645 551.929260,337.124695 523.810791,355.613129 
	C501.859741,370.046326 479.976288,384.582458 458.009125,398.991089 
	C428.496613,418.348877 398.952576,437.658875 369.382355,456.928436 
	C353.304657,467.405518 337.144867,477.756653 320.697876,488.002258 
	C315.597900,479.743866 310.842865,471.635529 306.042328,463.554260 
	C295.071442,445.085846 284.380096,426.441223 272.964630,408.251373 
	C267.399292,399.383423 260.466095,391.373901 254.152069,382.975800 
	C263.380829,366.548370 272.655487,350.146484 281.821106,333.683960 
	C287.304291,323.835510 292.535400,313.846710 298.023071,304.000885 
	C309.242645,283.871002 320.648682,263.844635 331.790527,243.672104 
	C336.157715,235.765167 340.056824,227.597885 344.097076,219.513168 
	C345.602783,216.500214 347.440582,215.081192 351.249878,214.829559 
	C364.623352,213.946213 377.944977,212.300491 391.296112,211.048965 
	C399.621613,210.268539 407.975311,209.784744 416.297546,208.974838 
	C428.820007,207.756210 441.323090,206.339859 453.840607,205.068314 
	C458.249268,204.620483 462.681244,204.405533 467.093750,203.990555 
	C480.933350,202.688980 494.761169,201.255539 508.608459,200.044006 
	C518.098816,199.213699 527.634888,198.878891 537.112671,197.940140 
	C548.131104,196.848770 559.108276,195.339676 570.531372,194.061310 
z"/>
<path fill="#000000" opacity="1.000000" stroke="none" 
	d="
M973.932312,535.487793 
	C961.231201,538.755615 952.187195,547.827332 941.966553,554.730896 
	C928.125732,564.079651 914.812073,574.207336 901.238342,583.953674 
	C892.408813,590.293640 883.550842,596.595215 874.633545,602.810669 
	C872.415771,604.356567 869.919067,605.502258 867.247681,607.001953 
	C858.125916,592.580078 849.040039,578.252319 839.992859,563.900208 
	C831.287781,550.090881 822.583313,536.280884 813.949219,522.427124 
	C800.289856,500.510345 786.759705,478.512665 773.042847,456.632050 
	C761.015320,437.446350 748.752014,418.408569 736.692505,399.242737 
	C724.389709,379.690369 712.285095,360.013031 699.944580,340.484589 
	C692.631531,328.911835 684.982605,317.551636 677.606323,306.018036 
	C676.415894,304.156616 675.862122,301.888062 675.065369,299.428711 
	C686.671936,291.375946 698.181824,283.632751 709.793762,276.045807 
	C724.664185,266.329865 739.701477,256.866791 754.475769,247.008347 
	C758.282837,244.467972 761.374084,240.854874 764.942017,237.418076 
	C776.769958,243.994003 788.395752,250.980560 800.145142,257.752563 
	C812.050598,264.614502 824.137024,271.162567 836.037048,278.033630 
	C850.068115,286.135132 863.928467,294.532593 877.965576,302.623322 
	C892.264160,310.864655 906.670898,318.919189 921.061951,326.999023 
	C932.463074,333.400146 944.053955,339.481964 955.224915,346.259003 
	C957.569336,347.681305 959.555115,351.418732 959.819885,354.264832 
	C961.509460,372.423126 962.653687,390.631805 964.012878,408.821259 
	C964.980164,421.765717 966.027344,434.704224 966.994873,447.648682 
	C968.354370,465.837067 969.608765,484.033539 971.033630,502.216766 
	C971.891724,513.167358 972.988159,524.099365 973.932312,535.487793 
z"/>
<path fill="#B29AC6" opacity="1.000000" stroke="none" 
	d="
M253.802338,383.041595 
	C260.466095,391.373901 267.399292,399.383423 272.964630,408.251373 
	C284.380096,426.441223 295.071442,445.085846 306.042328,463.554260 
	C310.842865,471.635529 315.597900,479.743866 320.693024,488.396057 
	C323.750946,499.964996 330.401550,508.752777 337.266449,517.405151 
	C337.613007,517.841919 338.473389,517.871033 339.178711,518.428101 
	C340.206482,520.238159 341.191681,521.685242 342.087402,523.185791 
	C353.130890,541.685364 364.116913,560.219360 375.210266,578.688904 
	C382.943176,591.563599 390.884796,604.312988 398.615784,617.188782 
	C411.983917,639.453003 425.200317,661.808350 438.592560,684.058044 
	C452.965912,707.937683 467.503326,731.718567 481.904358,755.581604 
	C494.392120,776.274231 506.781006,797.026489 519.230347,817.742371 
	C524.478271,826.474976 529.769165,835.181763 535.040588,843.900330 
	C533.768250,846.226135 533.052551,849.296387 531.121033,850.740417 
	C524.905396,855.387634 518.286987,859.507629 511.703491,863.639160 
	C510.649353,864.300598 508.977448,863.977661 507.245483,864.074707 
	C503.236511,858.385925 499.408142,852.831360 495.941681,847.059448 
	C486.544037,831.411499 477.343018,815.645630 467.983612,799.974548 
	C457.350739,782.171265 446.688965,764.384705 435.932800,746.655762 
	C424.409607,727.662659 412.644073,708.815918 401.197296,689.777222 
	C385.804718,664.175720 370.668457,638.420288 355.322632,612.790588 
	C344.188232,594.194519 332.876190,575.704956 321.679352,557.146179 
	C318.742340,552.278015 316.064392,547.248840 312.998840,542.465820 
	C312.072876,541.021057 310.242645,540.155823 308.456909,539.064941 
	C310.012512,536.632324 310.392944,534.158203 308.666046,531.300781 
	C305.137207,525.461914 302.038849,519.347473 298.259918,513.682312 
	C296.714905,511.366119 293.864624,509.920593 291.250671,508.017517 
	C287.369415,501.246674 284.133911,494.365997 280.268707,487.859436 
	C267.682861,466.672852 254.862091,445.625854 242.144806,424.517242 
	C240.308334,421.469025 238.543594,418.377625 236.411316,415.212341 
	C237.109497,411.312988 237.542908,407.199646 239.305557,403.769257 
	C242.479919,397.591461 246.386871,391.782043 250.142746,385.917969 
	C250.889191,384.752533 252.331299,384.032684 253.802338,383.041595 
z"/>
<path fill="#000000" opacity="1.000000" stroke="none" 
	d="
M656.086792,269.560272 
	C651.578125,263.365448 647.053284,256.952240 642.872620,250.322021 
	C630.588867,230.841232 618.441772,211.274277 606.178711,191.395081 
	C619.421936,189.713623 632.724915,188.349289 646.034546,187.053848 
	C653.661743,186.311493 661.291809,185.553757 668.937622,185.075974 
	C671.307861,184.927872 673.734192,185.676971 676.713379,186.403870 
	C687.970520,192.816040 698.672729,198.798233 709.319641,204.877258 
	C716.891724,209.200653 724.389404,213.654419 731.920288,218.049988 
	C728.618591,220.861298 725.554688,224.028336 721.973938,226.422211 
	C706.612854,236.691742 691.114136,246.755875 675.634949,256.847992 
	C669.205322,261.039978 662.699158,265.114685 656.086792,269.560272 
z"/>
<path fill="#B29BC7" opacity="1.000000" stroke="none" 
	d="
M732.267334,218.095367 
	C724.389404,213.654419 716.891724,209.200653 709.319641,204.877258 
	C698.672729,198.798233 687.970520,192.816040 677.138428,186.476807 
	C676.611145,185.424255 676.237488,184.687317 675.520752,183.273880 
	C680.733765,182.538559 685.669739,181.577744 690.650146,181.193085 
	C702.199219,180.301056 713.773010,179.734268 725.330750,178.946564 
	C735.037109,178.285049 742.689880,181.923141 747.113342,190.532990 
	C750.555847,197.233429 746.650940,209.528320 739.555176,215.794571 
	C737.867249,217.285141 734.960449,217.395508 732.267334,218.095367 
z"/>
<path fill="#AFB5DA" opacity="1.000000" stroke="none" 
	d="
M847.298218,922.955688 
	C853.278564,909.655396 859.470581,896.274658 866.023499,883.073059 
	C884.705566,845.436218 903.534424,807.872314 922.624817,770.113159 
	C921.327942,776.023132 920.006897,782.196716 918.046204,788.160034 
	C907.586670,819.972778 896.006470,851.383789 880.294556,881.017029 
	C873.857056,893.158447 866.011780,904.606323 858.123047,915.891602 
	C855.873901,919.109131 851.223755,920.648254 847.298218,922.955688 
z"/>
<path fill="#AFB5DA" opacity="1.000000" stroke="none" 
	d="
M640.283447,962.172241 
	C646.653015,960.936157 653.339233,959.926758 660.038086,959.010010 
	C669.559387,957.707031 679.083191,956.418701 688.618835,955.226624 
	C695.266235,954.395569 701.945007,953.814880 708.592163,952.981934 
	C718.287659,951.766968 727.960693,950.372375 737.655823,949.153931 
	C746.564392,948.034302 755.495239,947.092834 764.405823,945.988281 
	C774.597778,944.724731 784.771545,943.312805 794.966125,942.071472 
	C801.455566,941.281189 807.971680,940.713196 814.468384,939.979065 
	C816.057434,939.799561 817.616943,939.359436 819.606567,939.111206 
	C818.151733,940.719543 816.483215,942.653320 814.376587,943.728455 
	C799.360352,951.392029 783.195801,954.698425 766.521118,956.013550 
	C750.686218,957.262451 734.860107,958.623657 719.027893,959.907715 
	C714.077332,960.309265 709.124329,960.733704 704.163818,960.948853 
	C694.390381,961.372742 684.610901,961.659241 674.833862,961.999573 
	C665.222717,962.334106 655.612488,962.702515 645.999329,962.964050 
	C644.207520,963.012817 642.403870,962.626099 640.283447,962.172241 
z"/>
<path fill="#AFB5DA" opacity="1.000000" stroke="none" 
	d="
M846.345337,923.853760 
	C846.264221,923.694153 846.354126,923.384216 846.701538,922.996338 
	C846.884155,923.220947 846.736511,923.482727 846.345337,923.853760 
z"/>
<path fill="#000000" opacity="1.000000" stroke="none" 
	d="
M535.385620,843.834534 
	C529.769165,835.181763 524.478271,826.474976 519.230347,817.742371 
	C506.781006,797.026489 494.392120,776.274231 481.904358,755.581604 
	C467.503326,731.718567 452.965912,707.937683 438.592560,684.058044 
	C425.200317,661.808350 411.983917,639.453003 398.615784,617.188782 
	C390.884796,604.312988 382.943176,591.563599 375.210266,578.688904 
	C364.116913,560.219360 353.130890,541.685364 342.087402,523.185791 
	C341.191681,521.685242 340.206482,520.238159 339.541077,518.383057 
	C352.680756,509.706390 365.553955,501.431122 378.400818,493.115143 
	C395.510345,482.039917 412.643219,470.999939 429.686951,459.824188 
	C456.078491,442.518921 482.371948,425.063995 508.767456,407.764771 
	C525.685425,396.676941 542.753174,385.817780 559.680908,374.744659 
	C588.471497,355.911530 617.204529,336.990631 645.961792,318.106598 
	C655.322693,332.849152 664.665344,347.603302 674.049988,362.330719 
	C681.952515,374.732178 690.002136,387.040924 697.812988,399.499603 
	C713.615234,424.705078 729.214233,450.038208 745.054871,475.219421 
	C764.194275,505.644684 783.513794,535.956665 802.723328,566.337830 
	C814.096008,584.324524 825.432312,602.334473 836.712280,620.379456 
	C838.065552,622.544312 838.961609,624.994934 840.126892,627.432983 
	C827.196838,636.651733 814.405273,645.783325 801.601440,654.897644 
	C781.977783,668.866333 762.309265,682.772339 742.727295,696.799194 
	C723.515259,710.561218 704.458252,724.540344 685.201965,738.239685 
	C667.827942,750.599854 650.227600,762.641357 632.817261,774.950928 
	C616.092590,786.775757 599.482849,798.763062 582.824219,810.681152 
	C568.790405,820.721375 554.767944,830.777710 540.713623,840.789185 
	C539.142395,841.908386 537.395813,842.781494 535.385620,843.834534 
z"/>
<path fill="#AEC7E6" opacity="1.000000" stroke="none" 
	d="
M646.026672,317.728699 
	C617.204529,336.990631 588.471497,355.911530 559.680908,374.744659 
	C542.753174,385.817780 525.685425,396.676941 508.767456,407.764771 
	C482.371948,425.063995 456.078491,442.518921 429.686951,459.824188 
	C412.643219,470.999939 395.510345,482.039917 378.400818,493.115143 
	C365.553955,501.431122 352.680756,509.706390 339.456909,518.044922 
	C338.473389,517.871033 337.613007,517.841919 337.266449,517.405151 
	C330.401550,508.752777 323.750946,499.964996 321.017273,488.558380 
	C337.144867,477.756653 353.304657,467.405518 369.382355,456.928436 
	C398.952576,437.658875 428.496613,418.348877 458.009125,398.991089 
	C479.976288,384.582458 501.859741,370.046326 523.810791,355.613129 
	C551.929260,337.124695 580.063843,318.660645 608.225647,300.238403 
	C614.128235,296.377258 620.179626,292.743744 626.523987,288.977234 
	C628.778809,290.070007 631.198547,290.775452 632.470276,292.386902 
	C636.951599,298.065186 641.280273,303.902283 645.132568,310.015839 
	C646.326233,311.910095 645.819702,314.875671 646.026672,317.728699 
z"/>
<path fill="#000000" opacity="1.000000" stroke="none" 
	d="
M976.584167,571.150757 
	C977.945068,587.333862 978.902100,603.613403 980.042664,619.880066 
	C980.477600,626.083252 981.596619,632.244080 981.901428,638.448853 
	C982.092834,642.344299 981.349609,646.285645 980.946533,650.968689 
	C975.708069,661.873047 970.468445,671.975281 965.408936,682.166931 
	C958.522217,696.039307 951.773071,709.979980 944.964844,723.891357 
	C942.407349,726.409241 941.664856,723.525146 940.854431,722.260986 
	C932.509399,709.242981 924.271545,696.156067 916.026672,683.074036 
	C907.012573,668.771423 898.033203,654.446838 889.002747,640.154602 
	C888.227417,638.927612 887.182007,637.871338 886.190063,636.408203 
	C901.267212,625.373840 916.508240,614.794250 931.538757,603.923645 
	C945.855591,593.569214 959.950195,582.907776 974.155029,572.398132 
	C974.791260,571.927368 975.551086,571.623535 976.584167,571.150757 
z"/>
<path fill="#AEC7E6" opacity="1.000000" stroke="none" 
	d="
M944.977417,724.302124 
	C951.773071,709.979980 958.522217,696.039307 965.408936,682.166931 
	C970.468445,671.975281 975.708069,661.873047 981.031982,651.402344 
	C981.860657,650.625610 982.524658,650.177551 983.882263,649.261475 
	C984.943970,659.104431 986.176147,668.363220 986.878540,677.662048 
	C987.550293,686.554565 987.789246,695.486389 987.972107,704.406006 
	C988.039185,707.678650 987.400085,710.965698 987.045105,715.064331 
	C981.694336,727.237366 976.381531,738.592285 971.068787,749.947205 
	C960.768799,750.090515 947.835022,741.511353 944.692200,731.986938 
	C943.980408,729.829895 944.848877,727.151428 944.977417,724.302124 
z"/>
<path fill="#000000" opacity="1.000000" stroke="none" 
	d="
M971.477600,749.970154 
	C976.381531,738.592285 981.694336,727.237366 987.043701,715.491455 
	C987.660706,715.272339 988.755188,715.469788 988.748169,715.612610 
	C988.360535,723.440857 988.750244,731.446350 987.162415,739.036743 
	C985.611938,746.448486 979.291443,749.533569 971.477600,749.970154 
z"/>
</svg>